name D:\school\WTK\thesis\model\3dpredictsim\Results\batch_windlass\Pog_s1_tmt_bCst_d00_k500_WL20_ig24.mot
datacolumns 128
datarows 4
range 0.52690539 0.55851971
endheader
time	pelvis_tilt	pelvis_list	pelvis_rotation	pelvis_tx	pelvis_ty	pelvis_tz	hip_flexion_l	hip_adduction_l	hip_rotation_l	hip_flexion_r	hip_adduction_r	hip_rotation_r	knee_angle_l	knee_angle_r	ankle_angle_l	ankle_angle_r	subtalar_angle_l	subtalar_angle_r	tmt_angle_l	tmt_angle_r	mtp_angle_l	mtp_angle_r	lumbar_extension	lumbar_bending	lumbar_rotation	arm_flex_l	arm_add_l	arm_rot_l	arm_flex_r	arm_add_r	arm_rot_r	elbow_flex_l	elbow_flex_r	pro_sup_l	pro_sup_r	glut_med1_l/activation	glut_med2_l/activation	glut_med3_l/activation	glut_min1_l/activation	glut_min2_l/activation	glut_min3_l/activation	semimem_l/activation	semiten_l/activation	bifemlh_l/activation	bifemsh_l/activation	sar_l/activation	add_long_l/activation	add_brev_l/activation	add_mag1_l/activation	add_mag2_l/activation	add_mag3_l/activation	tfl_l/activation	pect_l/activation	grac_l/activation	glut_max1_l/activation	glut_max2_l/activation	glut_max3_l/activation	iliacus_l/activation	psoas_l/activation	quad_fem_l/activation	gem_l/activation	peri_l/activation	rect_fem_l/activation	vas_med_l/activation	vas_int_l/activation	vas_lat_l/activation	med_gas_l/activation	lat_gas_l/activation	soleus_l/activation	tib_post_l/activation	flex_dig_l/activation	flex_hal_l/activation	tib_ant_l/activation	per_brev_l/activation	per_long_l/activation	per_tert_l/activation	ext_dig_l/activation	ext_hal_l/activation	ercspn_l/activation	intobl_l/activation	extobl_l/activation	glut_med1_r/activation	glut_med2_r/activation	glut_med3_r/activation	glut_min1_r/activation	glut_min2_r/activation	glut_min3_r/activation	semimem_r/activation	semiten_r/activation	bifemlh_r/activation	bifemsh_r/activation	sar_r/activation	add_long_r/activation	add_brev_r/activation	add_mag1_r/activation	add_mag2_r/activation	add_mag3_r/activation	tfl_r/activation	pect_r/activation	grac_r/activation	glut_max1_r/activation	glut_max2_r/activation	glut_max3_r/activation	iliacus_r/activation	psoas_r/activation	quad_fem_r/activation	gem_r/activation	peri_r/activation	rect_fem_r/activation	vas_med_r/activation	vas_int_r/activation	vas_lat_r/activation	med_gas_r/activation	lat_gas_r/activation	soleus_r/activation	tib_post_r/activation	flex_dig_r/activation	flex_hal_r/activation	tib_ant_r/activation	per_brev_r/activation	per_long_r/activation	per_tert_r/activation	ext_dig_r/activation	ext_hal_r/activation	ercspn_r/activation	intobl_r/activation	extobl_r/activation	
          0.52690539	         -2.92490518	          1.44681116	         -5.30524052	          0.65863174	          0.86069930	          0.00116641	         30.90678901	          2.25197016	         -2.53660055	        -16.99162474	         -1.16728587	          7.90146073	        -18.23572751	        -10.89601732	          1.33542110	         -1.85508011	          2.54492501	         13.02397591	         -0.34979123	         -3.96150925	          1.74866387	         27.08184831	         -1.03483446	          0.05832196	          1.67397347	         -8.73526392	        -13.52444639	          6.16247958	          3.96640281	        -13.45987294	         14.41203409	         18.57572359	         34.22620411	         86.51662706	         86.51662706	          0.05878171	          0.05000058	          0.05000163	          0.05000113	          0.05000075	          0.05000636	          0.05878177	          0.05878174	          0.05878437	          0.05000066	          0.05000143	          0.13199980	          0.17937174	          0.10377653	          0.11307349	          0.09245519	          0.05000037	          0.05878473	          0.07637810	          0.05000065	          0.05838679	          0.12113592	          0.05435441	          0.05000015	          0.28401396	          0.09386936	          0.06397755	          0.05000004	          0.13518557	          0.13992042	          0.11605233	          0.05878177	          0.05878177	          0.05878175	          0.05878169	          0.05000014	          0.05000025	          0.50470615	          0.27427989	          0.15310098	          0.30552495	          0.55945014	          0.06664431	          0.05000007	          0.10656829	          0.11161102	          0.30402182	          0.09254911	          0.05000010	          0.30001884	          0.19050635	          0.09371446	          0.05000065	          0.05000013	          0.05000009	          0.06500220	          0.07955922	          0.11647804	          0.05003070	          0.05000047	          0.05000088	          0.05000033	          0.24312296	          0.09236464	          0.05000043	          0.05000083	          0.05000056	          0.05000040	          0.27254036	          0.45571072	          0.05000007	          0.05000012	          0.05000003	          0.15813595	          0.11401521	          0.08078318	          0.07933191	          0.26050409	          0.33883227	          0.23224624	          0.18937460	          0.18762019	          0.24390098	          0.05000004	          0.10846291	          0.16865775	          0.05000026	          0.05000033	          0.05000017	          0.05000001	          0.05000002	          0.05778430	
          0.53744350	         -2.91456285	          1.56835688	         -5.52736803	          0.67467934	          0.85982134	          0.00095421	         30.27851366	          2.68077636	         -2.29371377	        -16.65232454	         -1.45101838	          7.64341729	        -18.25724482	        -13.02015257	          1.10528458	         -2.77930593	          2.01135463	         13.94434542	         -0.41233427	         -4.68256746	          2.00428829	         27.98248232	         -0.84383402	         -0.22397097	          1.73570430	         -9.63042541	        -13.52194440	          5.97152749	          3.71182957	        -13.47798962	         14.73849744	         18.36824907	         35.09587079	         86.51662706	         86.51662706	          0.05000001	          0.05000005	          0.07258614	          0.05000003	          0.05000005	          0.05000008	          0.05000003	          0.05000011	          0.05000224	          0.05000036	          0.05878173	          0.11228058	          0.15257450	          0.38324298	          0.25582510	          0.07864289	          0.05000016	          0.05000362	          0.06496820	          0.05537407	          0.05878176	          0.12255957	          0.05274880	          0.06910633	          0.57945994	          0.12015403	          0.06640818	          0.06910594	          0.24728062	          0.24333920	          0.20816108	          0.05000001	          0.05000002	          0.05000000	          0.05000002	          0.05878200	          0.05582448	          0.61368555	          0.24577852	          0.13514530	          0.59209466	          0.61170284	          0.29300262	          0.05000000	          0.09064742	          0.09493679	          0.25860222	          0.07872266	          0.05000013	          0.25519732	          0.16204551	          0.07971394	          0.05000424	          0.05000008	          0.05000015	          0.05529116	          0.06767347	          0.17942312	          0.20585928	          0.26736953	          0.06590371	          0.15519341	          0.20680143	          0.07856644	          0.05000023	          0.05000067	          0.05000058	          0.05000069	          0.23182395	          0.38762944	          0.05000008	          0.05001539	          0.05878183	          0.13451109	          0.10432049	          0.13200904	          0.11228640	          0.22158584	          0.28821211	          0.19754959	          0.16108283	          0.15959059	          0.20746322	          0.12237238	          0.09225904	          0.14346099	          0.05000008	          0.13707393	          0.05000037	          0.05000001	          0.07123337	          0.06133349	
          0.54798160	         -2.89992260	          1.70113451	         -5.72460199	          0.69091909	          0.85873063	          0.00076894	         29.48487076	          3.06110363	         -1.98379364	        -16.23098393	         -1.72683662	          7.37130120	        -18.69196669	        -15.31682562	          1.24526801	         -3.69068984	          1.41210408	         14.78566478	         -0.64363195	         -5.26984021	          2.12400497	         28.27359121	         -0.64073992	         -0.52614266	          1.78463107	        -10.51335026	        -13.53567435	          5.87092524	          3.39724696	        -13.50038515	         15.00393913	         18.13542619	         35.96356619	         86.51662706	         86.51662706	          0.32509251	          0.29274239	          0.34524643	          0.10367920	          0.05000034	          0.39701685	          0.08688101	          0.05000024	          0.08782776	          0.05000002	          0.05000018	          0.09550645	          0.25035605	          0.32598809	          0.21760606	          0.13306893	          0.05000017	          0.06911709	          0.11178331	          0.05000004	          0.05000006	          0.12371729	          0.05878176	          0.05878215	          0.49289098	          0.10220357	          0.23495333	          0.05878180	          0.22987813	          0.24065885	          0.19970285	          0.05199162	          0.05108275	          0.05878174	          0.05000001	          0.05000025	          0.05000016	          0.56488354	          0.20906022	          0.11495515	          0.56099724	          0.58498484	          0.33492346	          0.05000003	          0.08124326	          0.08075362	          0.33278611	          0.06696184	          0.05000009	          0.21707199	          0.13783662	          0.06780503	          0.05000150	          0.05707984	          0.05878169	          0.05000004	          0.05756344	          0.15262049	          0.33113373	          0.22742574	          0.05882015	          0.13200834	          0.17590628	          0.06768907	          0.05436279	          0.05007985	          0.05876487	          0.05878174	          0.19719042	          0.35294840	          0.05793208	          0.05000042	          0.05000010	          0.11441568	          0.08873545	          0.11228744	          0.09551128	          0.18848181	          0.24515439	          0.16803648	          0.13701773	          0.13574848	          0.17646911	          0.21806024	          0.10851360	          0.13676480	          0.41229191	          0.24254843	          0.15663071	          0.07975033	          0.06059140	          0.05878174	
          0.55851971	         -2.88313912	          1.83600701	         -5.89424317	          0.70713642	          0.85748031	          0.00058196	         28.53948637	          3.41476985	         -1.66380310	        -15.69414498	         -1.98398986	          7.09886780	        -19.03462043	        -17.83556074	          1.47822623	         -4.52752970	          0.77265467	         15.51666521	         -0.77338102	         -5.48029795	          2.20425897	         27.49208549	         -0.44445308	         -0.83210637	          1.82351419	        -11.33929192	        -13.56002101	          5.86727356	          3.05917641	        -13.53309662	         15.23198668	         17.85953518	         36.81065931	         86.51662706	         86.51662706	          0.41386605	          0.46087964	          0.50576647	          0.29241651	          0.38162984	          0.36517436	          0.07390138	          0.10085382	          0.07470677	          0.08124317	          0.05000162	          0.08123819	          0.21295388	          0.27728684	          0.18509676	          0.14061389	          0.05000019	          0.05879138	          0.09508370	          0.27330055	          0.19421401	          0.13289144	          0.05000006	          0.05000035	          0.41925509	          0.08693489	          0.19985303	          0.05000004	          0.29430194	          0.32038686	          0.26203460	          0.05000000	          0.05000000	          0.05000000	          0.08727439	          0.05000055	          0.05000011	          0.63338286	          0.17782749	          0.09778133	          0.47718674	          0.54093225	          0.31552339	          0.07201760	          0.06910589	          0.06868936	          0.28306927	          0.05695805	          0.05000004	          0.18465633	          0.11724447	          0.05767533	          0.06747301	          0.05000028	          0.05000033	          0.05000050	          0.05878152	          0.13318763	          0.28166376	          0.19344935	          0.05003284	          0.11228693	          0.19547039	          0.05757711	          0.05000050	          0.05000052	          0.05000031	          0.05000024	          0.16773100	          0.32490131	          0.05000004	          0.05000033	          0.05000019	          0.09732245	          0.07547875	          0.09551217	          0.08124230	          0.16032340	          0.20852933	          0.14293252	          0.11654804	          0.11546835	          0.15010555	          0.23048331	          0.12576592	          0.12437650	          0.35069735	          0.25025099	          0.13323078	          0.12437135	          0.05153929	          0.05000002	
